<svg width="24" height="24" viewBox="0 0 24 24" fill="none" xmlns="http://www.w3.org/2000/svg">
<path d="M6.96793 20.5159C7.60929 20.5159 8.12922 19.996 8.12922 19.3546C8.12922 18.7133 7.60929 18.1934 6.96793 18.1934C6.32657 18.1934 5.80664 18.7133 5.80664 19.3546C5.80664 19.996 6.32657 20.5159 6.96793 20.5159Z" fill="#FEBC41"/>
<path d="M17.42 17.0323C20.1992 17.0323 22.4522 14.7793 22.4522 12C22.4522 9.22079 20.1992 6.96777 17.42 6.96777C14.6407 6.96777 12.3877 9.22079 12.3877 12C12.3877 14.7793 14.6407 17.0323 17.42 17.0323Z" fill="#FEBC41"/>
<path d="M8.90323 9.29004H1.16129C0.521032 9.29004 0 9.81107 0 10.4513V22.8384C0 23.4787 0.521032 23.9997 1.16129 23.9997H8.90323C9.54348 23.9997 10.0645 23.4787 10.0645 22.8384V10.4513C10.0645 9.81107 9.54348 9.29004 8.90323 9.29004ZM9.29032 22.8384C9.29032 23.0517 9.1169 23.2255 8.90323 23.2255H1.16129C0.947613 23.2255 0.774194 23.0517 0.774194 22.8384V10.4513C0.774194 10.238 0.947613 10.0642 1.16129 10.0642H8.90323C9.1169 10.0642 9.29032 10.238 9.29032 10.4513V22.8384Z" fill="#121527"/>
<path d="M6.96733 17.8066C6.1134 17.8066 5.41895 18.5011 5.41895 19.355C5.41895 19.6283 5.4952 19.8939 5.63301 20.1292C5.4952 20.3646 5.41895 20.6301 5.41895 20.9034C5.41895 21.7573 6.1134 22.4518 6.96733 22.4518C7.82127 22.4518 8.51572 21.7573 8.51572 20.9034C8.51572 20.6301 8.43946 20.3646 8.30166 20.1292C8.43946 19.8939 8.51572 19.6283 8.51572 19.355C8.51572 18.5011 7.82127 17.8066 6.96733 17.8066ZM6.96733 18.5808C7.3943 18.5808 7.74153 18.9281 7.74153 19.355C7.74153 19.5954 7.63198 19.7677 7.53985 19.8703C7.2383 20.2043 6.69675 20.2043 6.39482 19.8703C6.30269 19.7677 6.19314 19.5954 6.19314 19.355C6.19314 18.9281 6.54036 18.5808 6.96733 18.5808ZM6.96733 21.6776C6.54036 21.6776 6.19314 21.3304 6.19314 20.9034C6.19314 20.8318 6.20282 20.7664 6.21869 20.7072C6.67469 20.9619 7.25959 20.9619 7.71559 20.7072C7.73185 20.7664 7.74153 20.8318 7.74153 20.9034C7.74153 21.3304 7.3943 21.6776 6.96733 21.6776Z" fill="#121527"/>
<path d="M8.51638 10.8389H7.74219V15.8711H8.51638V10.8389Z" fill="#121527"/>
<path d="M6.96755 10.8389H6.19336V13.5485H6.96755V10.8389Z" fill="#121527"/>
<path d="M5.4198 10.8389H1.54883V14.7098H5.4198V10.8389ZM2.32302 13.9356V13.1614H3.09722V12.3873H2.32302V11.6131H4.6456V12.3873H3.87141V13.1614H4.6456V13.9356H2.32302Z" fill="#121527"/>
<path d="M10.8389 0V24H24.0002V0H10.8389ZM23.226 23.2258H11.6131V0.774194H23.226V23.2258Z" fill="#121527"/>
<path d="M13.1609 2.32302H15.0964V1.54883H12.3867V4.25851H13.1609V2.32302Z" fill="#121527"/>
<path d="M21.6777 4.25851H22.4519V1.54883H19.7422V2.32302H21.6777V4.25851Z" fill="#121527"/>
<path d="M15.0964 21.6777H13.1609V19.7422H12.3867V22.4519H15.0964V21.6777Z" fill="#121527"/>
<path d="M21.6777 21.6777H19.7422V22.4519H22.4519V19.7422H21.6777V21.6777Z" fill="#121527"/>
<path d="M6.57952 2.32258C6.15256 2.32258 5.80533 2.66981 5.80533 3.09677V5.80645H7.09785L5.03114 7.61458L2.96443 5.80645H4.25694V2.70968C4.25694 1.64245 5.1252 0.774194 6.19243 0.774194H8.12791H8.51501V0H8.12791H6.19243C4.69862 0 3.48275 1.21548 3.48275 2.70968V5.03226H0.904297L5.03114 8.64348L9.15797 5.03226H6.57952V3.09677H9.6763H10.0634V2.32258H9.6763H6.57952Z" fill="#121527"/>
<path d="M13.9355 11.6125V12.3867H14.7647C14.9377 13.0525 15.5385 13.5479 16.2581 13.5479C17.1121 13.5479 17.8065 12.8535 17.8065 11.9996C17.8065 11.5726 18.1537 11.2254 18.5807 11.2254C19.0077 11.2254 19.3549 11.5726 19.3549 11.9996C19.3549 12.4265 19.0077 12.7738 18.5807 12.7738V13.5479C19.3003 13.5479 19.9011 13.0525 20.0741 12.3867H20.9033V11.6125H20.0741C19.9011 10.9467 19.3003 10.4512 18.5807 10.4512C17.7268 10.4512 17.0323 11.1456 17.0323 11.9996C17.0323 12.4265 16.6851 12.7738 16.2581 12.7738C15.8312 12.7738 15.4839 12.4265 15.4839 11.9996C15.4839 11.5726 15.8312 11.2254 16.2581 11.2254V10.4512C15.5385 10.4512 14.9377 10.9467 14.7647 11.6125H13.9355Z" fill="#121527"/>
<path d="M17.8064 8.5166H17.0322V9.2908H17.8064V8.5166Z" fill="#121527"/>
<path d="M17.8064 14.71H17.0322V15.4842H17.8064V14.71Z" fill="#121527"/>
<path d="M10.0642 0H9.29004V0.774194H10.0642V0Z" fill="#121527"/>
</svg>
