<svg width="24" height="24" viewBox="0 0 24 24" fill="none" xmlns="http://www.w3.org/2000/svg">
<path d="M22.3823 14.4995L21.4761 14.3485C20.1875 11.7047 17.729 9.76144 14.8595 9.13086L14.693 9.88686C17.3973 10.4814 19.7052 12.3438 20.8657 14.8684L20.964 15.0825L21.199 15.0937L22.2546 15.2636C22.8174 15.3565 23.2258 15.8385 23.2258 16.4087V18.9678H20.9942C20.4259 18.2609 19.5561 17.8065 18.5806 17.8065C17.6052 17.8065 16.735 18.2609 16.1671 18.9678H14.3226V19.742H15.7119C15.5659 20.1008 15.4839 20.4925 15.4839 20.9032C15.4839 21.0345 15.4947 21.1634 15.5106 21.2903H8.48942C8.50529 21.1634 8.51613 21.0345 8.51613 20.9032C8.51613 20.4925 8.43406 20.1008 8.28813 19.742H13.5484V18.9678H7.8329C7.26465 18.2609 6.39484 17.8065 5.41935 17.8065C4.44387 17.8065 3.57368 18.2609 3.00581 18.9678H0.774194V18.1936H1.16129C1.80155 18.1936 2.32258 17.6725 2.32258 17.0323V16.6452C2.32258 16.0076 1.80619 15.4893 1.16981 15.4847C1.45432 15.1084 1.87045 14.8336 2.36361 14.7438L4.67148 14.3241L4.94516 14.3369L5.06323 14.1333C6.49084 11.6636 9.03368 10.0169 11.8649 9.72892L11.7863 8.95898C8.77664 9.26518 6.06697 10.9831 4.49729 13.5693L2.22542 13.9823C1.34516 14.1422 0.63871 14.7198 0.27329 15.4839H0.217161L0.144774 15.7792C0.142065 15.7909 0.14129 15.8029 0.138581 15.8145C0.0526452 16.0789 0 16.3576 0 16.6479V16.9843V18.1936V22.0645H2.55058C3.01123 23.198 4.12258 24 5.41935 24C6.71613 24 7.82748 23.198 8.28813 22.0645H15.7119C16.1725 23.198 17.2839 24 18.5806 24C19.8774 24 20.9888 23.198 21.4494 22.0645H24V16.4087C24 15.4587 23.3199 14.6555 22.3823 14.4995ZM1.54839 16.6452V17.0323C1.54839 17.2456 1.37497 17.4194 1.16129 17.4194H0.774194V16.9843C0.774194 16.7412 0.795097 16.4981 0.835742 16.2581H1.16129C1.37497 16.2581 1.54839 16.4319 1.54839 16.6452ZM2.34929 21.2903H0.774194V19.742H2.55058C2.40465 20.1008 2.32258 20.4925 2.32258 20.9032C2.32258 21.0345 2.33342 21.1634 2.34929 21.2903ZM5.41935 23.2258C4.13845 23.2258 3.09677 22.1841 3.09677 20.9032C3.09677 19.6223 4.13845 18.5807 5.41935 18.5807C6.70026 18.5807 7.74194 19.6223 7.74194 20.9032C7.74194 22.1841 6.70026 23.2258 5.41935 23.2258ZM18.5806 23.2258C17.2997 23.2258 16.2581 22.1841 16.2581 20.9032C16.2581 19.6223 17.2997 18.5807 18.5806 18.5807C19.8615 18.5807 20.9032 19.6223 20.9032 20.9032C20.9032 22.1841 19.8615 23.2258 18.5806 23.2258ZM23.2258 21.2903H21.6507C21.6666 21.1634 21.6774 21.0345 21.6774 20.9032C21.6774 20.4925 21.5954 20.1008 21.4494 19.742H23.2258V21.2903Z" fill="#121527"/>
<path d="M6.25568 14.043L6.19336 14.1394V15.8705H19.3547V13.8619L19.2826 13.7612C17.807 11.6887 15.4078 10.4512 12.8646 10.4512C10.1855 10.4512 7.71504 11.794 6.25568 14.043ZM8.51594 15.0963H6.96755V14.3701C6.97878 14.3539 6.99078 14.3384 7.002 14.3221H8.12884C8.34252 14.3221 8.51594 14.4959 8.51594 14.7092V15.0963ZM14.7095 11.4731C16.2439 11.8873 17.6181 12.8078 18.5805 14.1112V15.0963H14.7095V11.4731ZM12.8646 11.2254C13.2257 11.2254 13.583 11.2559 13.9353 11.3101V15.0963H9.29013V14.7092C9.29013 14.069 8.7691 13.5479 8.12884 13.5479H7.61478C8.9491 12.0785 10.8401 11.2254 12.8646 11.2254Z" fill="#121527"/>
<path d="M18.55 18.4004C17.1437 18.4004 16 19.5441 16 20.9504C16 22.3567 17.1437 23.5004 18.55 23.5004C19.9563 23.5004 21.1 22.3567 21.1 20.9504C21.1 19.5441 19.9563 18.4004 18.55 18.4004ZM18.55 22.2254C17.8468 22.2254 17.275 21.6536 17.275 20.9504C17.275 20.2472 17.8468 19.6754 18.55 19.6754C19.2532 19.6754 19.825 20.2472 19.825 20.9504C19.825 21.6536 19.2532 22.2254 18.55 22.2254Z" fill="#121527"/>
<path d="M5.45039 18.4004C4.04407 18.4004 2.90039 19.5441 2.90039 20.9504C2.90039 22.3567 4.04407 23.5004 5.45039 23.5004C6.85672 23.5004 8.00039 22.3567 8.00039 20.9504C8.00039 19.5441 6.85672 18.4004 5.45039 18.4004ZM5.45039 22.2254C4.74723 22.2254 4.17539 21.6536 4.17539 20.9504C4.17539 20.2472 4.74723 19.6754 5.45039 19.6754C6.15355 19.6754 6.72539 20.2472 6.72539 20.9504C6.72539 21.6536 6.15355 22.2254 5.45039 22.2254Z" fill="#121527"/>
<path d="M13.5489 10.0645C16.3281 10.0645 18.5811 7.8115 18.5811 5.03226C18.5811 2.25302 16.3281 0 13.5489 0C10.7696 0 8.5166 2.25302 8.5166 5.03226C8.5166 7.8115 10.7696 10.0645 13.5489 10.0645Z" fill="#FEBC41"/>
<path d="M10.8386 4.64551H10.0645V5.4197H10.8386V4.64551Z" fill="#121527"/>
<path d="M13.5484 3.09722C13.9754 3.09722 14.3226 3.44444 14.3226 3.87141H15.0968C15.0968 3.15218 14.6017 2.55102 13.9355 2.37799V1.54883H13.1613V2.37799C12.4951 2.55102 12 3.15218 12 3.87141C12 4.72534 12.6945 5.4198 13.5484 5.4198C13.9754 5.4198 14.3226 5.76702 14.3226 6.19399C14.3226 6.62096 13.9754 6.96818 13.5484 6.96818C13.1214 6.96818 12.7742 6.62096 12.7742 6.19399H12C12 6.91322 12.4951 7.51438 13.1613 7.68741V8.51657H13.9355V7.68741C14.6017 7.51438 15.0968 6.91322 15.0968 6.19399C15.0968 5.34005 14.4023 4.6456 13.5484 4.6456C13.1214 4.6456 12.7742 4.29838 12.7742 3.87141C12.7742 3.44444 13.1214 3.09722 13.5484 3.09722Z" fill="#121527"/>
<path d="M17.032 4.64551H16.2578V5.4197H17.032V4.64551Z" fill="#121527"/>
</svg>
