<svg width="24" height="24" viewBox="0 0 24 24" fill="none" xmlns="http://www.w3.org/2000/svg">
<path d="M12.7742 13.535V14.3092H0V12.7608C0 11.0534 1.38929 9.66406 3.09677 9.66406H12.3871V10.4383L12.7742 13.535Z" fill="#FEBC41"/>
<path d="M13.5484 23.2128V23.987H3.09677C1.38929 23.987 0 22.5977 0 20.8902V19.3418H13.1613V20.116L13.5484 23.2128Z" fill="#FEBC41"/>
<path d="M3.09706 12.7605C3.31085 12.7605 3.48415 12.5872 3.48415 12.3734C3.48415 12.1596 3.31085 11.9863 3.09706 11.9863C2.88327 11.9863 2.70996 12.1596 2.70996 12.3734C2.70996 12.5872 2.88327 12.7605 3.09706 12.7605Z" fill="#121527"/>
<path d="M5.41932 11.9861C5.63311 11.9861 5.80642 11.8128 5.80642 11.599C5.80642 11.3852 5.63311 11.2119 5.41932 11.2119C5.20554 11.2119 5.03223 11.3852 5.03223 11.599C5.03223 11.8128 5.20554 11.9861 5.41932 11.9861Z" fill="#121527"/>
<path d="M6.58046 13.1472C6.79424 13.1472 6.96755 12.9739 6.96755 12.7601C6.96755 12.5464 6.79424 12.373 6.58046 12.373C6.36667 12.373 6.19336 12.5464 6.19336 12.7601C6.19336 12.9739 6.36667 13.1472 6.58046 13.1472Z" fill="#121527"/>
<path d="M8.9037 12.7605C9.11749 12.7605 9.2908 12.5872 9.2908 12.3734C9.2908 12.1596 9.11749 11.9863 8.9037 11.9863C8.68991 11.9863 8.5166 12.1596 8.5166 12.3734C8.5166 12.5872 8.68991 12.7605 8.9037 12.7605Z" fill="#121527"/>
<path d="M10.0648 11.5994C10.2786 11.5994 10.4519 11.4261 10.4519 11.2123C10.4519 10.9985 10.2786 10.8252 10.0648 10.8252C9.85104 10.8252 9.67773 10.9985 9.67773 11.2123C9.67773 11.4261 9.85104 11.5994 10.0648 11.5994Z" fill="#121527"/>
<path d="M11.226 12.3728C11.4398 12.3728 11.6131 12.1995 11.6131 11.9857C11.6131 11.7719 11.4398 11.5986 11.226 11.5986C11.0122 11.5986 10.8389 11.7719 10.8389 11.9857C10.8389 12.1995 11.0122 12.3728 11.226 12.3728Z" fill="#121527"/>
<path d="M24 6.95393H18.1425L17.3837 1.64529L13.3049 0.0136719L13.0177 0.732511L16.6808 2.19767L17.3601 6.95393H11.6129V10.0507H12.031L12.4181 14.6959H2.12903C0.955355 14.6959 0 15.6512 0 16.8249C0 17.9986 0.955355 18.9539 2.12903 18.9539H12.773L13.1923 23.9862H22.4206L23.5819 10.0507H24V6.95393ZM12.3871 7.72812H23.2258V9.27651H12.3871V7.72812ZM13.0014 12.3733H22.6115L22.1923 17.4055H13.4206L13.0014 12.3733ZM2.12903 18.1797C1.38194 18.1797 0.774194 17.572 0.774194 16.8249C0.774194 16.0778 1.38194 15.4701 2.12903 15.4701H12.4827L12.6116 17.0184H12.5806C12.3468 17.0184 12.1297 16.9023 12 16.7076L11.8699 16.5125C11.5963 16.1022 11.1383 15.8572 10.6452 15.8572C10.152 15.8572 9.69406 16.1022 9.42039 16.5125L9.29032 16.7076C9.16064 16.9023 8.94348 17.0184 8.70968 17.0184C8.47587 17.0184 8.25871 16.9023 8.12903 16.7076L7.99897 16.5125C7.72529 16.1022 7.26735 15.8572 6.77419 15.8572C6.28103 15.8572 5.8231 16.1022 5.54942 16.5125L5.41935 16.7076C5.28968 16.9023 5.07252 17.0184 4.83871 17.0184C4.6049 17.0184 4.38774 16.9023 4.25806 16.7076L4.128 16.5125C3.85432 16.1022 3.39639 15.8572 2.90323 15.8572H2.32258V16.6314H2.90323C3.13703 16.6314 3.35419 16.7475 3.48387 16.9422L3.61394 17.1373C3.88761 17.5476 4.34555 17.7926 4.83871 17.7926C5.33187 17.7926 5.78981 17.5476 6.06348 17.1373L6.19355 16.9422C6.32323 16.7475 6.54039 16.6314 6.77419 16.6314C7.008 16.6314 7.22516 16.7475 7.35484 16.9422L7.4849 17.1373C7.75858 17.5476 8.21652 17.7926 8.70968 17.7926C9.20284 17.7926 9.66077 17.5476 9.93445 17.1373L10.0645 16.9422C10.1942 16.7475 10.4114 16.6314 10.6452 16.6314C10.879 16.6314 11.0961 16.7475 11.2258 16.9422L11.3559 17.1373C11.6295 17.5476 12.0875 17.7926 12.5806 17.7926H12.6763L12.7084 18.1797H2.12903ZM13.9045 23.212L13.4853 18.1797H22.128L21.7084 23.212H13.9045ZM22.6761 11.5991H12.9368L12.8079 10.0507H22.805L22.6761 11.5991Z" fill="#121527"/>
<path d="M2.70936 21.6638C2.92315 21.6638 3.09646 21.4905 3.09646 21.2767C3.09646 21.063 2.92315 20.8896 2.70936 20.8896C2.49557 20.8896 2.32227 21.063 2.32227 21.2767C2.32227 21.4905 2.49557 21.6638 2.70936 21.6638Z" fill="#121527"/>
<path d="M3.8705 22.4383C4.08428 22.4383 4.25759 22.2649 4.25759 22.0512C4.25759 21.8374 4.08428 21.6641 3.8705 21.6641C3.65671 21.6641 3.4834 21.8374 3.4834 22.0512C3.4834 22.2649 3.65671 22.4383 3.8705 22.4383Z" fill="#121527"/>
<path d="M5.0326 21.2761C5.24639 21.2761 5.4197 21.1028 5.4197 20.8891C5.4197 20.6753 5.24639 20.502 5.0326 20.502C4.81882 20.502 4.64551 20.6753 4.64551 20.8891C4.64551 21.1028 4.81882 21.2761 5.0326 21.2761Z" fill="#121527"/>
<path d="M6.96815 22.825C7.18194 22.825 7.35525 22.6517 7.35525 22.4379C7.35525 22.2241 7.18194 22.0508 6.96815 22.0508C6.75436 22.0508 6.58105 22.2241 6.58105 22.4379C6.58105 22.6517 6.75436 22.825 6.96815 22.825Z" fill="#121527"/>
<path d="M8.516 21.6638C8.72979 21.6638 8.9031 21.4905 8.9031 21.2767C8.9031 21.063 8.72979 20.8896 8.516 20.8896C8.30222 20.8896 8.12891 21.063 8.12891 21.2767C8.12891 21.4905 8.30222 21.6638 8.516 21.6638Z" fill="#121527"/>
<path d="M10.4515 22.4383C10.6653 22.4383 10.8386 22.2649 10.8386 22.0512C10.8386 21.8374 10.6653 21.6641 10.4515 21.6641C10.2378 21.6641 10.0645 21.8374 10.0645 22.0512C10.0645 22.2649 10.2378 22.4383 10.4515 22.4383Z" fill="#121527"/>
<path d="M11.6127 21.6638C11.8265 21.6638 11.9998 21.4905 11.9998 21.2767C11.9998 21.063 11.8265 20.8896 11.6127 20.8896C11.3989 20.8896 11.2256 21.063 11.2256 21.2767C11.2256 21.4905 11.3989 21.6638 11.6127 21.6638Z" fill="#121527"/>
</svg>
