<svg width="24" height="24" viewBox="0 0 24 24" fill="none" xmlns="http://www.w3.org/2000/svg">
<path d="M22.1016 19.3917H1.89839V19.3546C1.89839 18.521 1.22065 17.8433 0.387097 17.8433H0.35V6.1562H0.387097C1.22065 6.1562 1.89839 5.47847 1.89839 4.64491V4.60781H22.1016V4.64491C22.1016 5.47847 22.7793 6.1562 23.6129 6.1562H23.65V17.8433H23.6129C22.7793 17.8433 22.1016 18.521 22.1016 19.3546V19.3917Z" fill="#FEBC41" stroke="#121527" stroke-width="0.7"/>
<path d="M1.54839 6.96777H0V7.74197H1.54839V6.96777Z" fill="#121527"/>
<path d="M1.54839 10.0645H0V10.8386H1.54839V10.0645Z" fill="#121527"/>
<path d="M1.54839 13.1611H0V13.9353H1.54839V13.1611Z" fill="#121527"/>
<path d="M1.54839 16.2578H0V17.032H1.54839V16.2578Z" fill="#121527"/>
<path d="M23.9996 6.96777H22.4512V7.74197H23.9996V6.96777Z" fill="#121527"/>
<path d="M23.9996 10.0645H22.4512V10.8386H23.9996V10.0645Z" fill="#121527"/>
<path d="M23.9996 13.1611H22.4512V13.9353H23.9996V13.1611Z" fill="#121527"/>
<path d="M23.9996 16.2578H22.4512V17.032H23.9996V16.2578Z" fill="#121527"/>
<path d="M20.1293 6.19336H3.87125C3.23099 6.19336 2.70996 6.71439 2.70996 7.35465V16.645C2.70996 17.2852 3.23099 17.8063 3.87125 17.8063H20.1293C20.7696 17.8063 21.2906 17.2852 21.2906 16.645V7.35465C21.2906 6.71439 20.7696 6.19336 20.1293 6.19336ZM18.1938 6.96755V17.0321H5.80674V6.96755H18.1938ZM3.48415 16.645V7.35465C3.48415 7.14097 3.65757 6.96755 3.87125 6.96755H5.03254V17.0321H3.87125C3.65757 17.0321 3.48415 16.8587 3.48415 16.645ZM20.5164 16.645C20.5164 16.8587 20.343 17.0321 20.1293 17.0321H18.968V6.96755H20.1293C20.343 6.96755 20.5164 7.14097 20.5164 7.35465V16.645Z" fill="#121527"/>
<path d="M17.0323 9.67676H6.96777V10.451H17.0323V9.67676Z" fill="#121527"/>
<path d="M17.0323 11.6123H6.96777V12.3865H17.0323V11.6123Z" fill="#121527"/>
<path d="M15.4839 13.5479H6.96777V14.322H15.4839V13.5479Z" fill="#121527"/>
</svg>
