<svg width="24" height="24" viewBox="0 0 24 24" fill="none" xmlns="http://www.w3.org/2000/svg">
<path d="M14.3222 22.0641H5.80604L5.41895 17.4189L8.12862 18.9673L10.0641 17.4189L11.9996 18.9673L14.7093 17.4189L14.3222 22.0641Z" fill="#FEBC41"/>
<path d="M21.6774 0C20.82 0 20.0714 0.468387 19.6692 1.16129H0V1.93548H19.3897C19.3684 2.06168 19.3548 2.19058 19.3548 2.32258C19.3548 2.45458 19.3684 2.58348 19.3897 2.70968H0V3.48387H3.87097V5.41935H0V24H20.129V5.41935H16.2581V3.48387H19.6692C20.0714 4.17677 20.82 4.64516 21.6774 4.64516C22.9583 4.64516 24 3.60348 24 2.32258C24 1.04168 22.9583 0 21.6774 0ZM19.3548 6.19355V23.2258H0.774194V6.19355H3.87097V7.02271C3.20477 7.19574 2.70968 7.79652 2.70968 8.51613C2.70968 9.37006 3.40413 10.0645 4.25806 10.0645C5.112 10.0645 5.80645 9.37006 5.80645 8.51613C5.80645 7.79652 5.31135 7.19574 4.64516 7.02271V6.19355H15.4839V7.02271C14.8177 7.19574 14.3226 7.79652 14.3226 8.51613C14.3226 9.37006 15.017 10.0645 15.871 10.0645C16.7249 10.0645 17.4194 9.37006 17.4194 8.51613C17.4194 7.79652 16.9243 7.19574 16.2581 7.02271V6.19355H19.3548ZM4.64516 7.84955C4.87548 7.98387 5.03226 8.23084 5.03226 8.51613C5.03226 8.9431 4.68503 9.29032 4.25806 9.29032C3.8311 9.29032 3.48387 8.9431 3.48387 8.51613C3.48387 8.23084 3.64065 7.98387 3.87097 7.84955V8.51613H4.64516V7.84955ZM16.2581 7.84955C16.4884 7.98387 16.6452 8.23084 16.6452 8.51613C16.6452 8.9431 16.2979 9.29032 15.871 9.29032C15.444 9.29032 15.0968 8.9431 15.0968 8.51613C15.0968 8.23084 15.2535 7.98387 15.4839 7.84955V8.51613H16.2581V7.84955ZM15.4839 5.41935H4.64516V3.48387H15.4839V5.41935ZM21.6774 3.87097C20.8235 3.87097 20.129 3.17652 20.129 2.32258C20.129 1.46865 20.8235 0.774194 21.6774 0.774194C22.5314 0.774194 23.2258 1.46865 23.2258 2.32258C23.2258 3.17652 22.5314 3.87097 21.6774 3.87097Z" fill="#121527"/>
<path d="M5.03194 14.7101V11.6133H4.25775V12.7746H3.09646V11.6133H2.32227V14.7101H3.09646V13.5488H4.25775V14.7101H5.03194Z" fill="#121527"/>
<path d="M7.16148 11.6133C6.41438 11.6133 5.80664 12.221 5.80664 12.9681V13.3552C5.80664 14.1023 6.41438 14.7101 7.16148 14.7101C7.90858 14.7101 8.51632 14.1023 8.51632 13.3552V12.9681C8.51632 12.221 7.90858 11.6133 7.16148 11.6133ZM7.74212 13.3552C7.74212 13.6753 7.48161 13.9359 7.16148 13.9359C6.84135 13.9359 6.58083 13.6753 6.58083 13.3552V12.9681C6.58083 12.648 6.84135 12.3875 7.16148 12.3875C7.48161 12.3875 7.74212 12.648 7.74212 12.9681V13.3552Z" fill="#121527"/>
<path d="M9.29004 12.3875H10.0642V14.7101H10.8384V12.3875H11.6126V11.6133H9.29004V12.3875Z" fill="#121527"/>
<path d="M14.7093 13.9359H13.1609V13.5488H14.7093V12.7746H13.1609V12.3875H14.7093V11.6133H12.3867V14.7101H14.7093V13.9359Z" fill="#121527"/>
<path d="M16.2576 11.6133H15.4834V14.7101H17.806V13.9359H16.2576V11.6133Z" fill="#121527"/>
<path d="M10.0646 18.9678C9.42435 18.9678 8.90332 19.4888 8.90332 20.1291C8.90332 20.7693 9.42435 21.2904 10.0646 21.2904C10.7049 21.2904 11.2259 20.7693 11.2259 20.1291C11.2259 19.4888 10.7049 18.9678 10.0646 18.9678ZM10.0646 20.5162C9.85093 20.5162 9.67751 20.3427 9.67751 20.1291C9.67751 19.9154 9.85093 19.742 10.0646 19.742C10.2783 19.742 10.4517 19.9154 10.4517 20.1291C10.4517 20.3427 10.2783 20.5162 10.0646 20.5162Z" fill="#121527"/>
<path d="M5.0326 16.6453C5.24639 16.6453 5.4197 16.472 5.4197 16.2582C5.4197 16.0444 5.24639 15.8711 5.0326 15.8711C4.81882 15.8711 4.64551 16.0444 4.64551 16.2582C4.64551 16.472 4.81882 16.6453 5.0326 16.6453Z" fill="#121527"/>
<path d="M10.0648 16.6453C10.2786 16.6453 10.4519 16.472 10.4519 16.2582C10.4519 16.0444 10.2786 15.8711 10.0648 15.8711C9.85104 15.8711 9.67773 16.0444 9.67773 16.2582C9.67773 16.472 9.85104 16.6453 10.0648 16.6453Z" fill="#121527"/>
<path d="M15.0971 16.6453C15.3108 16.6453 15.4842 16.472 15.4842 16.2582C15.4842 16.0444 15.3108 15.8711 15.0971 15.8711C14.8833 15.8711 14.71 16.0444 14.71 16.2582C14.71 16.472 14.8833 16.6453 15.0971 16.6453Z" fill="#121527"/>
</svg>
